<svg width="24" height="24" viewBox="0 0 24 24" fill="none" xmlns="http://www.w3.org/2000/svg">
<path d="M20.145 8.26997L21.708 6.70697L20.294 5.29297L18.586 6.99997C17.536 6.36997 16.312 5.99997 15 5.99997C11.141 5.99997 8 9.13997 8 13C8 16.86 11.141 20 15 20C18.859 20 22 16.86 22 13C21.9992 11.246 21.3368 9.55687 20.145 8.26997ZM15 18C12.243 18 10 15.757 10 13C10 10.243 12.243 7.99997 15 7.99997C17.757 7.99997 20 10.243 20 13C20 15.757 17.757 18 15 18Z" fill="white"/>
<path d="M14 11C14 10.4477 14.4477 10 15 10C15.5523 10 16 10.4477 16 11V14H14V11ZM13 4C13 3.44772 13.4477 3 14 3H16C16.5523 3 17 3.44772 17 4C17 4.55228 16.5523 5 16 5H14C13.4477 5 13 4.55228 13 4ZM3 9C3 8.44772 3.44772 8 4 8H6C6.55228 8 7 8.44772 7 9C7 9.55228 6.55228 10 6 10H4C3.44772 10 3 9.55228 3 9ZM3 17C3 16.4477 3.44772 16 4 16H6C6.55228 16 7 16.4477 7 17C7 17.5523 6.55228 18 6 18H4C3.44772 18 3 17.5523 3 17ZM1 13C1 12.4477 1.44772 12 2 12H4.99C5.54229 12 5.99 12.4477 5.99 13C5.99 13.5523 5.54228 14 4.99 14H2C1.44771 14 1 13.5523 1 13Z" fill="white"/>
</svg>
