<svg width="16" height="16" viewBox="0 0 16 16" fill="none" xmlns="http://www.w3.org/2000/svg">
<path d="M3.59994 14C3.48623 14.0018 3.37317 13.9824 3.26661 13.9426L8.63596 8.57131L10.4133 10.3506L4.24327 13.8173C4.04783 13.9319 3.82642 13.9948 3.59994 14ZM2.82394 13.5566C2.71479 13.359 2.66047 13.1357 2.66661 12.91V3.10667C2.66571 2.95786 2.6882 2.80983 2.73327 2.668L8.22196 8.15798L2.82194 13.558L2.82394 13.5566ZM10.9433 10.0513L9.04929 8.15865L11.138 6.07067L12.9933 7.11265C13.3494 7.27205 13.5877 7.61591 13.612 8.00531C13.5878 8.39518 13.3492 8.73938 12.9926 8.89864L10.9433 10.0513ZM8.63596 7.74265L3.07594 2.18334C3.22859 2.07046 3.41341 2.00947 3.60327 2.00934C3.8275 2.0173 4.04625 2.08075 4.23994 2.19401L10.6073 5.77267L8.63596 7.74265Z" fill="#1D2939"/>
</svg>
